<svg width="20" height="20" viewBox="0 0 20 20" fill="none" xmlns="http://www.w3.org/2000/svg">
<path d="M12.5 4.16667C12.5 2.78595 11.3807 1.66667 10 1.66667C8.61929 1.66667 7.5 2.78595 7.5 4.16667V8.33333C7.5 9.71405 8.61929 10.8333 10 10.8333C11.3807 10.8333 12.5 9.71405 12.5 8.33333V4.16667Z" stroke="#A0A0A0" stroke-width="1.6" stroke-linecap="round" stroke-linejoin="round"/>
<path d="M4.16667 8.33333C4.16667 9.88043 4.78125 11.3642 5.87521 12.4581C6.96917 13.5521 8.4529 14.1667 10 14.1667C11.5471 14.1667 13.0308 13.5521 14.1248 12.4581C15.2188 11.3642 15.8333 9.88043 15.8333 8.33333" stroke="#A0A0A0" stroke-width="1.6" stroke-linecap="round" stroke-linejoin="round"/>
<path d="M6.66667 17.5H13.3333" stroke="#A0A0A0" stroke-width="1.6" stroke-linecap="round" stroke-linejoin="round"/>
<path d="M10 14.1667V17.5" stroke="#A0A0A0" stroke-width="1.6" stroke-linecap="round" stroke-linejoin="round"/>
</svg>
